<?xml version="1.0" standalone="no"?>
<!DOCTYPE svg PUBLIC "-//W3C//DTD SVG 20010904//EN"
 "http://www.w3.org/TR/2001/REC-SVG-20010904/DTD/svg10.dtd">
<svg version="1.0" xmlns="http://www.w3.org/2000/svg"
 width="1024.000000pt" height="1024.000000pt" viewBox="0 0 1024.000000 1024.000000"
 preserveAspectRatio="xMidYMid meet">

<g transform="translate(0.000000,1024.000000) scale(0.100000,-0.100000)"
fill="#000000" stroke="none">
<path d="M7208 7930 c-68 -17 -157 -69 -210 -123 -96 -96 -134 -201 -126 -345
9 -155 97 -283 246 -359 l75 -38 126 0 c124 0 127 1 202 36 293 140 354 510
119 723 -23 21 -76 54 -117 74 -69 32 -84 36 -177 38 -55 2 -118 -1 -138 -6z"/>
<path d="M1130 6850 c-449 -63 -835 -383 -995 -825 -107 -296 -106 -634 2
-924 129 -342 415 -619 764 -736 131 -44 372 -80 474 -70 286 26 456 79 640
201 314 206 521 525 570 878 49 348 -17 648 -202 923 -173 257 -437 447 -728
523 -107 28 -139 32 -290 35 -93 2 -199 0 -235 -5z m326 -541 c77 -14 207 -76
277 -134 182 -148 280 -428 249 -713 -20 -192 -86 -330 -218 -458 -82 -80
-133 -112 -243 -152 -67 -24 -90 -27 -201 -27 -106 0 -136 4 -195 24 -109 37
-173 78 -257 162 -64 64 -85 94 -127 181 -117 242 -117 523 0 764 87 179 247
311 424 349 74 17 212 18 291 4z"/>
<path d="M3930 6850 c-196 -32 -390 -144 -510 -295 -29 -36 -55 -64 -57 -61
-3 3 -7 65 -9 138 l-4 133 -270 3 -270 2 0 -1195 0 -1195 305 0 305 0 0 739
c0 824 0 826 66 952 49 93 139 176 230 214 64 27 79 29 200 30 l131 0 85 -42
c104 -52 175 -124 225 -230 61 -127 62 -150 63 -945 l0 -718 285 0 285 0 0
669 c0 393 4 711 10 771 33 318 217 500 506 500 111 0 176 -14 260 -55 135
-66 232 -206 253 -368 7 -49 11 -351 11 -798 l0 -719 291 0 290 0 -3 868 -4
867 -31 101 c-50 158 -127 280 -245 389 -183 170 -405 254 -668 255 -328 0
-568 -108 -747 -337 -36 -46 -68 -83 -71 -83 -4 0 -25 28 -47 61 -50 75 -173
193 -248 238 -67 40 -151 74 -233 96 -70 19 -304 28 -384 15z"/>
<path d="M8865 6850 c-183 -26 -362 -103 -527 -228 -362 -272 -550 -759 -487
-1262 11 -89 51 -251 76 -310 107 -246 268 -442 469 -572 112 -72 273 -135
409 -160 106 -19 382 -17 480 5 282 62 521 218 675 442 39 57 108 200 116 242
6 30 5 32 -36 43 -24 6 -84 20 -134 30 -50 10 -144 30 -210 44 -65 15 -119 25
-120 24 -47 -89 -133 -184 -210 -233 -196 -125 -428 -129 -630 -11 -67 39
-160 139 -198 213 -36 69 -82 242 -76 285 l3 23 831 3 831 2 6 65 c7 73 -6
287 -24 392 -29 174 -120 391 -221 528 -110 148 -275 283 -432 354 -129 58
-236 82 -391 86 -77 2 -167 0 -200 -5z m359 -515 c112 -42 191 -108 252 -207
43 -70 84 -188 84 -240 l0 -38 -540 0 c-428 0 -542 3 -545 13 -9 22 33 163 65
221 68 120 181 215 303 255 89 29 101 30 212 26 77 -3 116 -10 169 -30z"/>
<path d="M7030 5575 l0 -1195 285 0 285 0 0 1195 0 1195 -285 0 -285 0 0
-1195z"/>
<path d="M260 3555 l0 -135 4795 0 4795 0 0 135 0 135 -4795 0 -4795 0 0 -135z"/>
</g>
</svg>
