<?xml version="1.0" standalone="no"?>
<!DOCTYPE svg PUBLIC "-//W3C//DTD SVG 20010904//EN"
 "http://www.w3.org/TR/2001/REC-SVG-20010904/DTD/svg10.dtd">
<svg version="1.0" xmlns="http://www.w3.org/2000/svg"
 width="1024.000000pt" height="1024.000000pt" viewBox="0 0 1024.000000 1024.000000"
 preserveAspectRatio="xMidYMid meet">

<g transform="translate(0.000000,1024.000000) scale(0.100000,-0.100000)"
fill="#000000" stroke="none">
<path d="M6915 7087 c-266 -89 -352 -403 -164 -597 155 -159 442 -139 574 40
51 69 67 122 68 216 1 72 -3 89 -31 147 -38 77 -101 138 -181 175 -65 30 -202
40 -266 19z"/>
<path d="M1955 6205 c-109 -17 -157 -31 -244 -71 -223 -103 -398 -278 -505
-505 -168 -355 -128 -796 99 -1088 101 -132 257 -257 398 -321 242 -109 564
-117 817 -19 164 63 359 216 466 366 217 304 252 717 89 1061 -57 120 -131
217 -245 325 -228 213 -546 305 -875 252z m286 -435 c196 -37 356 -198 415
-420 27 -101 25 -284 -5 -380 -33 -109 -77 -185 -147 -254 -103 -104 -229
-156 -374 -156 -147 1 -257 46 -360 150 -71 70 -115 145 -151 255 -30 92 -33
294 -5 395 41 151 158 305 274 364 100 51 234 68 353 46z"/>
<path d="M4235 6206 c-159 -31 -319 -129 -399 -245 -16 -23 -33 -41 -37 -41
-5 0 -9 52 -9 115 l0 115 -220 0 -220 0 0 -975 0 -975 245 0 245 0 0 603 c0
663 0 663 62 779 40 76 109 139 184 169 49 20 76 23 164 23 92 0 112 -3 162
-26 106 -49 178 -134 221 -261 21 -60 22 -82 25 -674 l3 -613 229 0 c178 0
230 3 230 13 0 6 1 278 3 602 3 516 5 597 20 647 28 95 58 150 117 209 70 71
141 100 260 107 240 13 402 -116 441 -348 5 -30 9 -319 9 -642 l0 -588 235 0
235 0 0 659 c0 416 -4 688 -11 737 -21 154 -82 275 -194 389 -87 89 -157 136
-259 176 -236 91 -527 74 -723 -43 -70 -41 -161 -124 -209 -189 -19 -27 -39
-49 -44 -49 -5 0 -19 17 -31 38 -55 88 -171 189 -279 240 -112 53 -317 75
-455 48z"/>
<path d="M8267 6210 c-157 -25 -301 -89 -432 -193 -234 -185 -374 -469 -391
-797 -21 -392 138 -729 437 -929 429 -287 1051 -168 1305 250 38 63 83 163 84
186 0 7 -33 19 -77 28 -43 9 -136 29 -208 45 -71 16 -130 28 -130 27 -1 -1
-16 -26 -34 -55 -66 -105 -181 -179 -323 -208 -71 -14 -85 -14 -153 -1 -42 9
-100 27 -131 41 -71 33 -163 121 -203 195 -32 60 -61 163 -61 219 l0 32 681 0
682 0 -6 168 c-7 178 -25 283 -71 405 -104 275 -322 483 -591 562 -101 30
-273 41 -378 25z m306 -420 c139 -52 235 -175 265 -338 l9 -52 -445 0 -445 0
5 45 c3 24 22 78 41 120 59 123 154 202 290 240 71 21 204 13 280 -15z"/>
<path d="M6780 5175 l0 -975 235 0 235 0 0 975 0 975 -235 0 -235 0 0 -975z"/>
<path d="M1270 3530 l0 -110 3905 0 3905 0 0 110 0 110 -3905 0 -3905 0 0
-110z"/>
</g>
</svg>
